PathFileType	4	(X/Y/Z)	results/motion.trc
DataRate	CameraRate	NumFrames	NumMarkers	Units	OrigDataRate	OrigDataStartFrame	OrigNumFrames
13	13	14	20	mm	13	53	88
Frame#	Time	NUI_SKELETON_POSITION_HIP_CENTER	NUI_SKELETON_POSITION_HIP_RIGHT	NUI_SKELETON_POSITION_HIP_LEFT	NUI_SKELETON_POSITION_KNEE_RIGHT	NUI_SKELETON_POSITION_KNEE_LEFT	NUI_SKELETON_POSITION_ANKLE_RIGHT	NUI_SKELETON_POSITION_ANKLE_LEFT	NUI_SKELETON_POSITION_FOOT_RIGHT	NUI_SKELETON_POSITION_FOOT_LEFT	NUI_SKELETON_POSITION_SPINE	NUI_SKELETON_POSITION_SHOULDER_RIGHT	NUI_SKELETON_POSITION_SHOULDER_LEFT	NUI_SKELETON_POSITION_ELBOW_RIGHT	NUI_SKELETON_POSITION_ELBOW_LEFT	NUI_SKELETON_POSITION_WRIST_RIGHT	NUI_SKELETON_POSITION_WRIST_LEFT	NUI_SKELETON_POSITION_HAND_RIGHT	NUI_SKELETON_POSITION_HAND_LEFT	NUI_SKELETON_POSITION_SHOULDER_CENTER	NUI_SKELETON_POSITION_HEAD
X1	Y1	Z1	X2	Y2	Z2	X3	Y3	Z3	X4	Y4	Z4	X5	Y5	Z5	X6	Y6	Z6	X7	Y7	Z7	X8	Y8	Z8	X9	Y9	Z9	X10	Y10	Z10	X11	Y11	Z11	X12	Y12	Z12	X13	Y13	Z13	X14	Y14	Z14	X15	Y15	Z15	X16	Y16	Z16	X17	Y17	Z17	X18	Y18	Z18	X19	Y19	Z19	X20	Y20	Z20	
53	4.518000	-51.259905	692.476690	-457.307816	28.979897	614.484429	-452.486038	-130.964801	610.747933	-458.117008	93.220204	170.822188	-475.269794	-146.231174	180.816591	-380.123138	158.140600	-150.418282	-423.433304	-106.118560	-158.725321	-231.017113	187.623620	-224.791288	-443.652153	-158.468470	-234.938204	-248.182535	-49.472064	767.205954	-450.454712	117.831707	1039.824724	-411.351919	-208.665133	1036.951184	-433.127880	262.271553	859.191835	-361.219645	-323.917061	852.922738	-316.610813	407.604843	801.657677	-480.299473	-498.177975	791.294098	-441.447258	410.009950	820.472360	-488.312006	-516.706228	800.759077	-498.300552	-48.717305	1143.698096	-467.209339	-59.825107	1304.881454	-531.324387	
54	4.585000	-51.643595	698.854208	-397.721052	29.925078	620.497406	-384.514570	-132.210359	615.721107	-406.653881	99.328220	174.796477	-354.264498	-147.879526	184.547082	-346.970797	162.273943	-148.537636	-228.228807	-106.388301	-158.219755	-210.051060	204.926342	-225.229025	-239.880085	-158.857092	-234.961748	-228.163242	-50.508693	773.577869	-391.500235	115.407288	1045.545816	-329.129696	-215.976685	1040.683270	-398.057938	244.619519	852.979302	-240.374804	-340.768397	864.969969	-306.591272	401.535839	790.411592	-349.851370	-504.122138	834.236741	-474.845171	413.308352	803.865373	-363.365889	-512.922049	848.562837	-525.349379	-51.876187	1149.842262	-405.598402	-55.686057	1314.468622	-465.792418	
55	4.674000	-48.897251	704.853773	-337.727547	33.359528	625.620782	-316.926241	-129.886121	621.028483	-354.764223	104.185253	178.058624	-236.743927	-148.791119	187.942296	-317.153931	161.969066	-146.380424	-58.752537	-106.548965	-157.783866	-191.347361	209.169149	-224.223256	-66.154480	-159.184784	-234.983265	-210.079193	-48.661977	779.662132	-332.112551	117.149353	1048.995256	-246.938467	-219.126329	1044.961691	-362.479925	233.047038	847.642779	-145.679712	-354.839742	877.602816	-301.125050	400.085658	773.196816	-230.900526	-498.051226	877.410293	-511.625528	416.225046	784.929991	-248.178720	-499.366492	894.946098	-551.417112	-51.938564	1156.150341	-344.548225	-45.950353	1323.582530	-397.816896	
56	4.754000	-41.909724	709.242225	-276.763439	40.074408	629.146397	-250.316620	-123.298593	625.522017	-301.340818	108.290017	179.229096	-134.480715	-148.459643	191.107810	-288.949966	161.190867	-145.731747	67.304373	-106.711932	-157.388747	-174.508333	210.601687	-225.199938	67.852259	-159.427851	-235.054970	-194.163799	-42.336434	784.323573	-270.806789	123.139739	1051.378489	-166.832924	-217.022195	1049.478769	-322.717667	224.230409	838.158488	-54.708004	-364.954591	889.918685	-296.006441	400.752515	756.477118	-126.838923	-481.415689	916.365445	-542.490244	421.947330	766.203523	-147.414446	-481.696934	932.485104	-567.621946	-44.845626	1162.154436	-279.026031	-30.692875	1332.125187	-327.565193	
57	4.803000	-34.634218	712.426722	-222.987890	46.649605	631.846964	-192.624569	-115.444236	629.031181	-252.389908	111.656219	180.315763	-53.167105	-147.872955	193.777472	-264.094353	160.671234	-145.139098	165.347099	-106.976151	-157.041311	-159.454346	212.554187	-225.739121	171.261549	-159.583300	-235.170543	-180.532455	-35.878524	787.813962	-217.079163	128.516465	1053.669930	-100.141287	-213.606209	1053.297877	-286.892176	217.309058	830.660462	18.538952	-370.535672	901.029766	-288.727760	401.449889	742.536783	-42.149067	-466.148406	949.209571	-562.121868	426.766604	750.745535	-64.989805	-463.853121	964.839280	-581.417322	-38.268492	1166.987658	-223.510742	-16.815752	1338.528872	-267.749548	
58	4.834000	-26.685834	714.824080	-174.677849	53.677082	633.974552	-141.738892	-106.560186	631.942511	-207.323790	114.517033	181.285664	13.726234	-146.698415	196.327522	-241.535902	160.496324	-144.393384	245.982409	-107.393794	-156.745732	-146.274805	215.024382	-225.859046	256.262302	-159.639657	-235.314071	-169.271231	-28.745577	790.452123	-168.924570	133.988976	1055.670261	-42.836905	-208.812207	1056.604385	-253.634691	214.298159	825.034261	81.264257	-374.019146	911.750019	-283.048391	402.828485	729.075789	29.474974	-449.707091	977.586687	-579.064131	435.948282	732.183635	4.862309	-445.381284	992.418170	-591.475487	-31.464577	1170.661211	-174.870253	-3.441304	1343.946218	-215.494394	
59	4.903000	-16.247958	717.362344	-127.226353	63.178033	635.882199	-92.278719	-96.575275	634.856462	-164.821863	118.157864	182.292432	74.359894	-145.070583	198.635101	-220.903635	160.771102	-143.426597	315.954924	-107.976750	-156.512618	-135.037422	217.781842	-225.710630	330.114841	-159.592360	-235.455573	-160.445929	-18.772095	793.022156	-120.744228	144.214213	1057.865858	14.562368	-199.074626	1059.823990	-216.246605	213.681132	820.097983	137.695074	-376.372099	921.058893	-278.207541	405.549914	716.533005	93.624830	-429.695129	1003.383875	-592.998743	442.340881	718.581259	67.292690	-424.497902	1016.480207	-595.813274	-19.461170	1173.395038	-123.542309	14.005616	1346.920729	-160.943985	
60	5.001000	-5.362213	718.859255	-83.102703	72.741836	636.777580	-47.721148	-85.290551	637.111664	-121.986628	121.554166	183.233216	127.278566	-142.432809	200.551048	-199.337482	160.559297	-142.743349	378.350019	-108.950995	-156.299174	-125.707865	219.028622	-225.753069	394.417286	-159.693301	-235.556841	-154.081106	-8.069903	794.630349	-75.732470	157.059342	1057.198524	66.412210	-185.060218	1062.543273	-176.197529	216.246843	815.693796	188.586235	-376.955628	929.397941	-270.930529	408.249289	705.507040	148.964167	-416.059911	1023.497820	-599.828482	448.691696	706.390858	121.589184	-402.918041	1036.755562	-593.017817	-5.808622	1175.549746	-76.039314	32.669991	1350.179434	-111.318588	
61	5.101000	7.035226	720.720530	-38.627386	83.484173	637.634397	-4.418612	-73.333442	639.757037	-78.905344	124.843359	184.549809	174.756050	-138.887912	202.432305	-173.241138	159.326673	-142.674744	431.143761	-111.245893	-155.236185	-116.439342	217.826813	-226.200104	446.116924	-161.638722	-234.275877	-148.205280	4.740641	796.468735	-29.386997	173.785120	1057.347894	115.679026	-166.793048	1065.523148	-130.960703	223.459274	812.233329	233.887434	-369.337827	941.076458	-250.910521	413.376063	695.504904	196.609020	-397.217929	1040.363550	-585.740566	457.452923	694.761515	167.428017	-379.950583	1054.792881	-576.935291	12.071192	1177.190661	-26.551008	53.255528	1352.174640	-62.171698	
62	5.154000	17.895728	722.320974	-0.479221	92.799693	638.393164	32.655478	-62.704414	642.129064	-41.387796	127.480865	185.591385	216.562510	-135.601044	203.590244	-148.422241	157.007813	-143.157005	471.885204	-113.885500	-154.170573	-107.906818	214.295387	-226.916492	483.131886	-163.938791	-232.900560	-143.015862	16.026765	798.013687	10.455370	188.891083	1057.449102	157.583475	-149.370611	1068.328857	-90.128899	232.498586	809.709072	272.344351	-364.781678	950.307965	-235.133886	420.239955	686.171532	235.460281	-380.591869	1056.538463	-572.941303	467.442065	683.948219	203.958273	-358.506054	1069.689393	-556.843996	28.094113	1178.479671	15.834808	71.419179	1353.892684	-19.862890	
63	5.217000	29.274166	724.252522	36.787271	101.877391	639.361501	66.775084	-51.620930	644.916296	-2.539635	130.014032	186.636165	253.915071	-132.753789	205.686346	-117.160320	153.959215	-143.895328	499.899626	-120.108582	-152.428329	-92.703819	208.564073	-227.572858	504.434586	-169.454277	-231.135607	-131.693363	28.472304	799.821496	49.559593	204.913437	1058.270216	194.840670	-129.492074	1072.476625	-42.574167	249.820411	809.876442	301.954031	-352.557838	964.412153	-198.852062	432.065159	679.225087	259.504080	-363.350511	1073.753119	-527.583599	482.787639	677.272916	220.444441	-344.368666	1086.571455	-527.873755	46.921164	1179.660797	56.926012	89.047492	1355.950117	21.086216	
64	5.353000	39.527714	725.508809	72.220325	109.666675	640.133739	97.321749	-41.459084	647.020936	37.520647	132.829487	187.693700	286.685705	-130.366161	208.330482	-65.947294	150.414735	-145.018220	515.507698	-133.389264	-149.064898	-30.580521	201.203465	-228.333235	511.267662	-186.064124	-227.456212	-62.231779	40.801495	800.794005	88.287115	219.581276	1058.796167	226.775408	-107.752487	1075.637817	15.230417	272.020251	811.771750	316.668749	-333.980799	980.188489	-128.758907	449.399859	681.872129	249.950886	-352.242172	1092.564821	-426.208496	497.682363	684.886634	200.672388	-333.649397	1103.337049	-431.675434	67.090690	1180.818915	99.467516	104.209155	1358.184457	60.477734	
65	5.435000	48.420221	726.661086	103.156328	116.344988	640.859127	124.201775	-32.596469	648.873866	72.603226	136.040777	189.025134	314.050913	-128.196537	210.509151	-16.940355	146.681070	-146.388054	519.648790	-143.522486	-147.270381	33.466339	192.997128	-229.160964	505.661488	-196.862057	-223.713517	14.393806	51.607460	801.653147	122.070074	233.208865	1059.166908	254.110098	-89.270696	1078.527451	65.583467	295.660645	812.823415	324.403286	-315.800935	991.861403	-58.922768	466.216892	687.646627	228.166819	-345.318198	1106.478453	-323.486567	510.511994	696.996689	168.119431	-326.508582	1115.870357	-336.940765	84.400594	1181.762934	135.775089	116.878986	1360.294938	95.078468	
66	5.487000	56.116611	727.656245	130.330801	122.115642	641.493738	148.081064	-24.915114	650.485218	103.460789	139.532506	190.431058	335.484266	-126.225680	213.248253	30.232191	142.919958	-147.899032	513.826132	-150.477618	-146.261632	103.146076	184.453934	-229.968011	490.461349	-204.990685	-219.547808	98.287106	61.090827	802.386403	151.711702	246.015698	1059.333801	277.197599	-73.332161	1081.215143	110.442877	320.719570	815.425634	319.615364	-298.583597	1000.176668	7.894278	483.240694	695.206404	192.357540	-338.970125	1115.526676	-229.981899	518.859744	713.016272	127.545118	-322.716057	1124.342799	-247.916698	99.342823	1182.650566	167.063475	127.682537	1362.142086	125.005722	
